<svg id="trim_area" data-name="trim area" xmlns="http://www.w3.org/2000/svg" viewBox="0 0 135.19 153"><defs><style>.cls-1,.cls-2{fill:#fff;}.cls-1{stroke:#fff;stroke-miterlimit:10;}</style></defs><title>Logo</title><polyline class="cls-1" points="12.03 128.2 13.84 130.23 15.55 132.15 17.39 134.01 19.32 135.76 21.29 137.42 23.39 139 25.52 140.5 27.7 141.91 29.96 143.19 32.31 144.36 34.65 145.44 37.08 146.44 39.56 147.31 42.15 148.26 44.79 149.13 47.43 149.88 50.11 150.59 52.84 151.13 55.56 151.63 58.28 152 61.05 152.25 63.81 152.42 66.58 152.5 69.34 152.46 72.11 152.33 74.87 152.09 77.59 151.75 80.36 151.29 83.04 150.75 85.76 150.09 88.4 149.34 91.04 148.51 93.64 147.56 96.19 146.52 98.75 145.4 101.22 144.15 103.65 142.86 106 141.45 108.34 139.95 110.6 138.38 112.82 136.71 114.96 134.97 117.01 133.14 119.02 131.27 120.95 129.28 122.83 127.24 124.59 125.17 126.31 123.01 127.9 120.76 129.45 118.48 130.88 116.11 132.26 113.74 133.52 111.29 134.69 108.8 133.14 112.58 131.46 116.23 130.58 117.98 129.62 119.64 128.62 121.26 127.57 122.76 126.48 124.21 125.35 125.58 124.13 126.91 122.88 128.16 121.58 129.32 120.2 130.4 117.35 132.39 114.33 134.14 111.15 135.63 107.75 136.88 104.23 137.92 100.55 138.75 96.74 139.37 92.8 139.83 88.69 140.08 84.5 140.16 80.19 140.08 75.75 139.83 71.22 139.5 66.62 139 61.92 138.38 57.15 137.67 52.29 136.84 47.39 135.97 42.45 134.97 32.39 132.85 22.25 130.57 12.03 128.2"/><circle class="cls-2" cx="134.69" cy="108.8" r="0.5"/><circle class="cls-2" cx="12.03" cy="128.2" r="0.5"/><polygon class="cls-1" points="120.4 67.71 120.32 71.95 120.15 76.23 119.86 80.47 119.48 84.7 118.98 88.9 118.35 93.14 117.64 97.33 116.84 101.49 115.88 105.64 114.87 109.8 113.74 113.87 112.49 117.94 111.15 122.01 109.72 126 108.17 129.98 106.54 133.89 104.8 137.75 102.85 137.84 100.92 137.79 98.96 137.63 97.03 137.38 95.1 137.05 93.22 136.55 91.37 136.01 89.53 135.34 87.73 134.6 85.97 133.72 84.29 132.77 82.66 131.73 81.07 130.61 79.56 129.36 78.09 128.07 76.71 126.7 75.41 125.25 74.2 123.75 73.07 122.17 72.02 120.55 71.06 118.85 70.22 117.11 69.46 115.32 68.79 113.49 68.25 111.66 67.79 109.75 67.7 109.71 70.68 107.76 73.53 105.72 76.33 103.56 78.85 101.49 81.28 99.37 83.67 97.17 85.93 94.88 88.15 92.51 90.28 90.06 92.34 87.57 94.35 85.04 96.23 82.38 98.03 79.72 99.75 76.98 101.38 74.19 102.93 71.37 104.4 68.46 105.74 65.51 107 62.56 108.17 59.53 109.22 56.5 110.18 53.42 111.06 50.31 111.82 47.15 112.49 43.99 113.03 40.84 113.49 37.64 113.87 34.44 114.12 31.2 114.25 28 114.29 24.76 114.21 21.81 115.21 25.59 116.21 29.75 117.09 33.9 117.89 38.05 118.56 42.29 119.15 46.49 119.61 50.72 119.98 54.96 120.24 59.2 120.36 63.44 120.4 67.71"/><polyline class="cls-1" points="57.48 137.67 53.63 136.42 49.86 135.05 46.05 133.6 42.32 132.06 38.63 130.4 34.99 128.66 31.39 126.83 27.83 124.88 24.35 122.84 20.91 120.72 17.52 118.52 14.17 116.23 10.9 113.87 7.72 111.42 4.58 108.88 1.48 106.26 1.48 106.26 4.16 106.43 6.88 106.47 9.56 106.39 12.29 106.18 14.97 105.81 14.97 105.85 18.07 105.31 21.08 104.69 24.14 103.98 27.11 103.15 30.09 102.23 33.02 101.24 35.95 100.12 38.8 98.91 41.61 97.62 44.41 96.21 47.14 94.72 49.82 93.14 52.42 91.48 55.01 89.73 57.48 87.9 59.96 85.99 62.3 84 64.61 81.92 66.87 79.76 69 77.56 71.1 75.23 73.11 72.91 75.04 70.46 76.88 67.96 78.64 65.43 80.31 62.81 81.91 60.15 83.42 57.45 84.8 54.67 86.1 51.89 87.31 49.02 88.44 46.15 89.45 43.25 90.37 40.3 91.21 37.31 91.92 34.31 92.55 31.28 93.05 28.21 93.47 25.18 93.76 22.1 93.97 18.99 94.1 15.91 94.1 12.84 93.97 9.72 93.76 6.65 93.47 3.57 93.05 0.5 93.43 5.32 93.68 10.1 93.85 14.91 93.89 19.69 93.85 24.51 93.68 29.33 93.39 34.11 93.01 38.88 92.51 43.66 91.88 48.44 91.17 53.17 90.33 57.91 89.41 62.65 88.36 67.34 87.23 71.99 85.97 76.64 84.59 81.26 83.12 85.83 81.57 90.35 79.9 94.88 78.14 99.37 76.25 103.77 74.28 108.17 72.19 112.5 70.01 116.77 70.01 116.82 67.71 121.09 65.32 125.37 62.8 129.53 60.17 133.68 57.44 137.71"/><circle class="cls-2" cx="93.05" cy="0.5" r="0.5"/></svg>